<svg xmlns="http://www.w3.org/2000/svg" width="80" height="80" viewBox="-25 -50 600.786 230.449">
  <defs>
    <style>
      .cls-1 {
        fill: #a7a7a7;
      }

      .cls-2 {
        fill: #f5f5f5;
      }
    </style>
  </defs>
  <g id="Af1" transform="translate(-462.45 -554.539)">
    <path id="Path_1" data-name="Path 1" class="cls-1" d="M988.948,562.884c7.023,1.561,6.473,6.956,6.473,6.956l13.816,197.232c-.056,1.125.234,5.816-2.544,9.16s-10.568,4.541-10.568,4.541-473.645,5.447-485.6,3.957-31.821-5.7-41.1-12.589-6.628-14.614-6.628-14.614,4.457-21.715,7.8-33.415c6.374-22.286,13.6-30.808,17.007-34.215a25.228,25.228,0,0,1,8.216-5.122L633.7,644.859s2.816-.81,5.394-1.86a52.835,52.835,0,0,0,4.919-2.343l159.177-85.149s5.683-1.569,10.064-.71a15.508,15.508,0,0,1,7.459,4.144c9.772,12.705,38.583,48.2,78.951,52.473,46.884,4.958,79.142-45.148,79.142-45.148S983.393,560.516,988.948,562.884Z"/>
    <path id="Path_2" data-name="Path 2" class="cls-2" d="M981.256,626.309s-12.662,6.352-45.63,16.951-84.057,23.83-84.057,23.83-6.061,2-30.213,7.8c-7.365,1.022-24.233,5.532-34.979,5.995-11.868.511-23.728-.537-30.2-2.668-11.126-5.658-15.254-13.111-16.156-20.654-1.119-9.319,3.3-19.987,8.324-26.011,8.792-10.55,34.334-22.369,34.334-22.369s-2.732,12.113-2.641,21.22a19.523,19.523,0,0,0,14.207,18.852c8.743,2.732,14.722,1.333,25.164,1.2,4.793-.06,40.06-6.47,70.437-13.183,35.384-7.82,66.263-16.135,66.263-16.135s28.174-6.868,42.027-14.718l1.126,11.012C984.818,625.013,981.256,626.309,981.256,626.309Z" transform="translate(1)"/>
  </g>
</svg>
